# xmcd
#
# Track frame offsets: 
#        150
#        22010
#        40998
#        61048
#        77587
#        94079
#        114889
#        133135
#        148038
#        165320
#        182890
#        202734
#        219173
#        235352
#
# Disc length: 3367 seconds
#
# Revision: 0
# Processed by: cddbd v1.5.2PL0 Copyright (c) Steve Scherf et al.
# Submitted via: ExactAudioCopy v1.0b4
#
DISCID=b40d250e
DTITLE=Deborah Coleman - The Essential Deborah Coleman
DYEAR=2015
DGENRE=Blues Rock
TTITLE0=I'm A Woman
TTITLE1=Roll With Me
TTITLE2=My Heart Bleeds Blue
TTITLE3=Don't Lie To Me
TTITLE4=Look What You Do To Me
TTITLE5=I Can't Lose
TTITLE6=Travelin' South
TTITLE7=Goodbye Misery
TTITLE8=Livin' On Love
TTITLE9=Crazy
TTITLE10=Deserted Highway
TTITLE11=I Believe (Live)
TTITLE12=You're With Me (Live)
TTITLE13=Nobody To Blame
EXTD=
EXTT0=
EXTT1=
EXTT2=
EXTT3=
EXTT4=
EXTT5=
EXTT6=
EXTT7=
EXTT8=
EXTT9=
EXTT10=
EXTT11=
EXTT12=
EXTT13=
PLAYORDER=
